<?xml version="1.0" encoding="UTF-8" standalone="no"?>
<!-- Created with Inkscape (http://www.inkscape.org/) -->

<svg
   width="71.4375mm"
   height="71.4375mm"
   viewBox="0 0 71.437499 71.4375"
   version="1.1"
   id="svg1"
   inkscape:version="1.4 (86a8ad7, 2024-10-11)"
   sodipodi:docname="GroundSymbol.svg"
   inkscape:export-filename="EarthSymbol_plain.svg"
   inkscape:export-xdpi="96"
   inkscape:export-ydpi="96"
   xmlns:inkscape="http://www.inkscape.org/namespaces/inkscape"
   xmlns:sodipodi="http://sodipodi.sourceforge.net/DTD/sodipodi-0.dtd"
   xmlns="http://www.w3.org/2000/svg"
   xmlns:svg="http://www.w3.org/2000/svg">
  <sodipodi:namedview
     id="namedview1"
     pagecolor="#553a2d"
     bordercolor="#000000"
     borderopacity="0.25"
     inkscape:showpageshadow="2"
     inkscape:pageopacity="0.0"
     inkscape:pagecheckerboard="0"
     inkscape:deskcolor="#000035"
     inkscape:document-units="mm"
     inkscape:zoom="1.4142136"
     inkscape:cx="41.7193"
     inkscape:cy="245.71961"
     inkscape:window-width="1920"
     inkscape:window-height="991"
     inkscape:window-x="-9"
     inkscape:window-y="-9"
     inkscape:window-maximized="1"
     inkscape:current-layer="layer1" />
  <defs
     id="defs1" />
  <g
     inkscape:label="Layer 1"
     inkscape:groupmode="layer"
     id="layer1"
     transform="translate(-55,-98.500001)">
    <g
       id="g2"
       transform="matrix(0.714375,0,0,0.714375,-24.56042,14.693096)">
      <path
         style="fill:#008000;stroke-width:0.32778;stroke-linejoin:round;paint-order:stroke fill markers"
         id="path2"
         sodipodi:type="arc"
         sodipodi:cx="161.37067"
         sodipodi:cy="167.315"
         sodipodi:rx="50"
         sodipodi:ry="50"
         sodipodi:start="0"
         sodipodi:end="6.1652144"
         sodipodi:open="true"
         sodipodi:arc-type="arc"
         d="m 211.37067,167.315 a 50,50 0 0 1 -48.52558,49.97826 50,50 0 0 1 -51.38747,-47.03069 50,50 0 0 1 45.49491,-52.75199 50,50 0 0 1 54.07061,43.91955" />
      <path
         d="m 130.37858,137.18416 c -0.20423,-0.002 -0.40918,0.007 -0.61386,0.0281 -1.65456,0.17396 -3.12588,1.1295 -3.95768,2.57032 -1.43523,2.48586 -0.58351,5.66454 1.90236,7.09974 1.60956,0.90231 3.57684,0.88359 5.16892,-0.0492 l 10.50907,18.20234 0.11635,0.20137 2.33561,4.04534 12.961,22.44925 c -0.79431,0.43852 -1.46,1.07734 -1.93083,1.85293 -1.43524,2.48587 -0.58351,5.66454 1.90236,7.09974 2.48586,1.43524 5.66454,0.58352 7.09975,-1.90235 1.43523,-2.48587 0.58351,-5.66454 -1.90236,-7.09975 l 10.48079,-18.15312 0.11635,-0.20156 2.33539,-4.04514 12.93255,-22.39982 h 1.9e-4 c 2.48587,1.43523 5.66454,0.58351 7.09975,-1.90236 1.43524,-2.48587 0.58352,-5.66454 -1.90236,-7.09975 -2.48587,-1.43523 -5.66453,-0.58351 -7.09974,1.90236 -0.43634,0.79553 -0.65681,1.69142 -0.63949,2.59859 h -21.01834 -0.2327 -4.67099 -25.87382 c 0.001,-1.85502 -0.98533,-3.57035 -2.59005,-4.50095 -0.77233,-0.44594 -1.64325,-0.684 -2.52821,-0.69603 z m -0.17187,0.47656 c 0.83498,-0.0187 1.68554,0.18404 2.46169,0.63216 1.46062,0.84327 2.3604,2.4017 2.36042,4.08825 h -0.54367 c 0.001,-1.49378 -0.7921,-2.87545 -2.0838,-3.62573 -2.00239,-1.15604 -4.56279,-0.46998 -5.71889,1.53238 -1.15617,2.00244 -0.47009,4.563 1.53239,5.7191 1.29713,0.715 2.87552,0.69141 4.1507,-0.0621 l 0.26259,0.45479 c -1.438,0.84961 -3.21789,0.87614 -4.68056,0.0698 -2.25786,-1.30364 -3.03144,-4.19079 -1.72784,-6.44867 0.85551,-1.48173 2.39291,-2.32431 3.98697,-2.36001 z m 62.12512,0 c 0.83498,-0.0187 1.68556,0.18404 2.46171,0.63216 2.25786,1.30363 3.03144,4.19078 1.72786,6.44867 -1.30364,2.25786 -4.19079,3.03144 -6.44868,1.72786 l 0.26705,-0.46253 c 2.00244,1.15617 4.563,0.47009 5.7191,-1.53238 1.15616,-2.00245 0.47009,-4.563 -1.53239,-5.7191 -2.00244,-1.15617 -4.563,-0.47009 -5.7191,1.53238 -0.34247,0.64332 -0.5111,1.36489 -0.48916,2.09335 h -0.52517 c -0.0246,-0.82141 0.16556,-1.63504 0.5518,-2.3604 0.85551,-1.48173 2.39293,-2.32431 3.98698,-2.36001 z m -62.09807,1.26024 c 0.61207,-0.0137 1.23558,0.13486 1.80453,0.46334 1.06708,0.62052 1.72283,1.76245 1.72093,2.99683 h -0.88213 c 5e-5,-0.91784 -0.48958,-1.76599 -1.28445,-2.22495 -0.42239,-0.24384 -0.88536,-0.35414 -1.33976,-0.34394 -0.86751,0.0195 -1.70411,0.47804 -2.16963,1.28446 -0.70942,1.22875 -0.28844,2.79995 0.9403,3.50939 0.79487,0.45893 1.77422,0.45893 2.56909,0 l 0.41615,0.72084 c -1.05409,0.62285 -2.35886,0.64235 -3.43109,0.0513 -1.65519,-0.95565 -2.22225,-3.07217 -1.26654,-4.72733 0.62715,-1.08615 1.7541,-1.70372 2.9226,-1.72989 z m 62.12512,0 c 0.61208,-0.0137 1.23559,0.13486 1.80453,0.46334 1.65515,0.95557 2.22229,3.07196 1.26676,4.72713 -0.95559,1.65526 -3.07212,2.22242 -4.72735,1.26675 l 0.44585,-0.77209 c 1.22877,0.70942 2.79996,0.28844 3.50941,-0.9403 0.70956,-1.2288 0.28855,-2.80014 -0.9403,-3.50961 -0.42242,-0.24389 -0.88534,-0.35413 -1.33977,-0.34394 -0.86757,0.0195 -1.70431,0.47797 -2.16984,1.28446 -0.22545,0.39052 -0.34414,0.83351 -0.34414,1.28443 h -0.83229 c -0.0181,-0.60213 0.12138,-1.19857 0.40455,-1.73028 0.62713,-1.08614 1.7541,-1.70371 2.92259,-1.72989 z m -62.08445,1.89261 c 0.27727,-0.006 0.55973,0.0611 0.81747,0.2099 0.48169,0.28223 0.77695,0.79936 0.77513,1.35766 0.002,0.27443 -0.0668,0.54473 -0.20136,0.7839 -0.1376,0.2383 -0.33548,0.43619 -0.57377,0.57378 -0.48502,0.28001 -1.08258,0.28001 -1.56759,0 -0.74986,-0.43291 -1.00676,-1.39174 -0.57378,-2.14156 0.28409,-0.49201 0.79457,-0.77183 1.3239,-0.78368 z m 62.12514,0 c 0.27729,-0.006 0.55969,0.0611 0.81744,0.2099 0.74986,0.4329 1.00677,1.39174 0.57378,2.14156 -0.4329,0.74986 -1.39174,1.00676 -2.14155,0.57378 -0.48501,-0.28007 -0.78374,-0.79762 -0.78369,-1.35768 -5e-5,-0.27518 0.0724,-0.54553 0.20991,-0.78388 0.28409,-0.4921 0.79472,-0.77184 1.32411,-0.78368 z m -26.82124,2.59472 h 0.21742 l 3.8814,14.48608 3.86474,14.42324 -0.10859,0.18834 -14.48608,-3.88142 -14.42323,-3.86473 -0.10883,-0.18814 10.60446,-10.60466 z m -1.84725,48.68654 c 2.25785,1.30364 3.03144,4.19079 1.72785,6.44867 -1.30364,2.25787 -4.19079,3.03145 -6.44868,1.72785 -2.25794,-1.30356 -3.03161,-4.19074 -1.72806,-6.44868 0.43508,-0.69718 1.04461,-1.26872 1.76833,-1.65808 l 0.26259,0.45479 c -0.6418,0.34528 -1.18234,0.85211 -1.56819,1.47036 -1.15617,2.00244 -0.47008,4.56299 1.53239,5.7191 2.00239,1.15602 4.5628,0.46996 5.71889,-1.5324 1.15621,-2.00238 0.47022,-4.56292 -1.53218,-5.71909 l -0.36306,0.6287 c 1.65518,0.95565 2.22225,3.07217 1.26655,4.72733 -0.95565,1.65508 -3.07201,2.22212 -4.72714,1.26655 -1.65515,-0.95557 -2.22228,-3.07196 -1.26675,-4.72713 0.31892,-0.51108 0.76572,-0.93006 1.29625,-1.21549 l 0.41614,0.72083 c -0.39052,0.22548 -0.71483,0.54978 -0.9403,0.94031 -0.70956,1.22879 -0.28856,2.80014 0.9403,3.50959 1.2288,0.70939 2.80003,0.28832 3.50939,-0.9405 0.70943,-1.22875 0.28845,-2.79996 -0.94029,-3.5094 l -0.50057,0.86728 c 0.7498,0.43298 1.0066,1.3918 0.57359,2.14156 -0.4329,0.74973 -1.39159,1.00662 -2.14136,0.57379 -0.74985,-0.43291 -1.00676,-1.39176 -0.57377,-2.14156 0.13758,-0.23831 0.33546,-0.4362 0.57377,-0.57379 0.48502,-0.28 1.08256,-0.28 1.56758,0 l 0.50076,-0.86728 0.44585,-0.77209 0.36286,-0.6287 z"
         style="fill:#413400;fill-opacity:1;stroke:none;stroke-width:0.0216735;paint-order:stroke fill markers"
         id="path184" />
    </g>
    <text
       xml:space="preserve"
       style="font-size:11.5472px;text-align:start;writing-mode:lr-tb;direction:ltr;text-anchor:start;fill:#ff1c00;fill-opacity:0.5;stroke:#ff0000;stroke-width:0.00962261"
       x="128.3604"
       y="24.023041"
       id="text3"
       transform="rotate(48.373365)"><tspan
         sodipodi:role="line"
         id="tspan3"
         style="fill:#ff1c00;fill-opacity:0.5;stroke-width:0.00962261"
         x="128.3604"
         y="24.023041">star_t_pup</tspan></text>
  </g>
</svg>
