<?xml version="1.0" encoding="UTF-8" standalone="no"?>
<!-- Created with Inkscape (http://www.inkscape.org/) -->

<svg
   width="61.770721mm"
   height="71.4375mm"
   viewBox="0 0 61.770721 71.437498"
   version="1.1"
   id="svg1"
   inkscape:version="1.4 (86a8ad7, 2024-10-11)"
   sodipodi:docname="NightSymbol.svg"
   inkscape:export-filename="C:\Users\rocky\OneDrive\Desktop\NightSymbol.png"
   inkscape:export-xdpi="102"
   inkscape:export-ydpi="102"
   xmlns:inkscape="http://www.inkscape.org/namespaces/inkscape"
   xmlns:sodipodi="http://sodipodi.sourceforge.net/DTD/sodipodi-0.dtd"
   xmlns="http://www.w3.org/2000/svg"
   xmlns:svg="http://www.w3.org/2000/svg">
  <sodipodi:namedview
     id="namedview1"
     pagecolor="#000080"
     bordercolor="#000000"
     borderopacity="0.25"
     inkscape:showpageshadow="2"
     inkscape:pageopacity="0.0"
     inkscape:pagecheckerboard="0"
     inkscape:deskcolor="#000035"
     inkscape:document-units="mm"
     inkscape:zoom="2"
     inkscape:cx="102.75"
     inkscape:cy="130.25"
     inkscape:window-width="1920"
     inkscape:window-height="1057"
     inkscape:window-x="0"
     inkscape:window-y="0"
     inkscape:window-maximized="0"
     inkscape:current-layer="layer1"
     showgrid="false"
     inkscape:export-bgcolor="#000080ff"
     showguides="true" />
  <defs
     id="defs1">
    <rect
       x="-216"
       y="-64"
       width="720"
       height="386"
       id="rect2" />
    <rect
       x="-146"
       y="-64"
       width="582"
       height="454"
       id="rect1" />
  </defs>
  <g
     inkscape:label="Layer 1"
     inkscape:groupmode="layer"
     id="layer1"
     transform="translate(-64.60426,-100.41433)">
    <path
       id="path2"
       style="display:none;fill:#000000;stroke:none;stroke-width:0.899999;stroke-linejoin:round;paint-order:stroke fill markers"
       sodipodi:type="inkscape:offset"
       inkscape:radius="6.3062153"
       inkscape:original="M 115.84961 179.91406 A 41.315849 41.315849 0 0 0 74.535156 221.23047 A 41.315849 41.315849 0 0 0 115.84961 262.54492 A 41.315849 41.315849 0 0 0 141.34375 253.62305 A 33.378609 33.378609 0 0 1 133.73438 254.60742 A 33.378609 33.378609 0 0 1 100.35547 221.23047 A 33.378609 33.378609 0 0 1 133.73438 187.85156 A 33.378609 33.378609 0 0 1 141.36328 188.74023 A 41.315849 41.315849 0 0 0 115.84961 179.91406 z "
       d="m 115.84961,173.60742 c -12.46727,4.2e-4 -24.858348,5.13332 -33.673829,13.94922 -8.81548,8.8159 -13.947435,21.20656 -13.947265,33.67383 4.22e-4,12.46689 5.133795,24.85645 13.949218,33.67187 8.815424,8.81543 21.204986,13.9488 33.671876,13.94922 a 6.3068459,6.3068459 0 0 0 0.0234,0 c 10.57185,-0.0385 21.09584,-3.72124 29.38476,-10.2832 a 6.3068459,6.3068459 0 0 0 -4.59375,-10.98242 c 1.26777,-0.30253 0.9677,-0.29206 -0.51367,-0.0508 a 6.3068459,6.3068459 0 0 0 -0.33008,-0.0312 c -0.63229,0.1573 -0.28614,0.0879 -0.75195,0.20703 -0.47281,0.0859 -0.12972,0.004 -0.76953,0.125 -0.63575,0.11979 -0.28815,0.0705 -0.75781,0.16211 -0.48013,0.0589 -0.13106,-0.002 -0.78321,0.082 -0.65164,0.0843 -0.29828,0.0559 -0.77734,0.12109 -0.47731,0.0309 -0.12856,-0.0107 -0.77344,0.0352 -0.65366,0.0465 -0.30008,0.0387 -0.78125,0.0762 -0.4571,0.003 -0.12975,-0.0178 -0.74023,-0.01 -5.07836,0.009 -0.0663,0.50604 -5.23243,-0.52148 -5.21357,-1.03697 -0.16702,0.49312 -5.07812,-1.54102 -4.9111,-2.03413 -0.26173,0.45119 -4.68164,-2.50195 -4.41991,-2.95314 -0.34269,0.39342 -4.10156,-3.36523 -3.75888,-3.75866 -0.41379,0.31622 -3.36719,-4.10352 -2.9534,-4.41974 -0.46753,0.2313 -2.50195,-4.67969 -2.03443,-4.91098 -0.50375,0.13539 -1.54102,-5.07812 -1.03727,-5.21351 -0.51927,0.0344 -0.51953,-5.28125 -5e-5,-5.31563 -0.51746,-0.0677 0.51953,-5.28125 1.03699,-5.2135 -0.49317,-0.16711 1.54102,-5.07813 2.03418,-4.91101 -0.45125,-0.26184 2.50195,-4.68164 2.9532,-4.41979 -0.39153,-0.34284 3.36719,-4.10156 3.75872,-3.75872 -0.31823,-0.41399 4.10156,-3.36719 4.41979,-2.95319 -0.22937,-0.46777 4.68164,-2.50195 4.91101,-2.03418 -0.13538,-0.50402 5.07812,-1.54102 5.21351,-1.03699 -0.0344,-0.51957 5.28125,-0.51953 0.6564,4.2e-4 0.30436,-0.0166 0.78711,-0.0195 0.47631,0.0309 0.12617,0.0269 0.76954,0.0645 0.64508,0.0377 0.29592,6.1e-4 0.77343,0.0254 0.48064,0.0592 0.12696,0.0351 0.78125,0.11132 0.65078,0.0758 0.30158,0.0176 0.78125,0.0703 0.47174,0.0859 0.12257,0.0422 0.76172,0.15429 0.63973,0.1122 0.29644,0.0354 0.76953,0.11524 0.46921,0.11375 0.12154,0.0489 0.75977,0.19922 a 6.3068459,6.3068459 0 0 0 0.33594,-0.0371 c 1.4685,0.21979 1.77526,0.22986 0.51367,-0.0547 a 6.3068459,6.3068459 0 0 0 4.49219,-11.00586 c -8.30933,-6.52756 -18.84157,-10.17146 -29.40821,-10.17383 a 6.3068459,6.3068459 0 0 0 -0.002,0 z" />
    <g
       id="g32"
       transform="matrix(9,0,0,9,-857.75804,-245.54625)"
       inkscape:export-filename="C:\Users\rocky\OneDrive\Desktop\g32.png"
       inkscape:export-xdpi="450"
       inkscape:export-ydpi="450">
      <g
         id="g1"
         inkscape:export-filename="C:\Users\rocky\OneDrive\NightSymbol.png"
         inkscape:export-xdpi="500"
         inkscape:export-ydpi="500">
        <path
           d="m 106.45334,38.440105 c -1.0367,2.3e-5 -2.07315,0.42936 -2.80621,1.162426 -0.73307,0.733066 -1.16241,1.769511 -1.16243,2.806219 -2e-5,1.036745 0.42919,2.073294 1.16226,2.806388 0.73306,0.733094 1.76964,1.162404 2.80638,1.162427 0.9406,-1.65e-4 1.88181,-0.350552 2.59361,-0.965419 0.13965,-0.120914 0.13478,-0.26376 0.0653,-0.384802 -0.0695,-0.121043 -0.19047,-0.197306 -0.36531,-0.13768 l 1.7e-4,-1.65e-4 c -0.93108,0.318691 -1.69407,0.07774 -2.20624,-0.250024 -0.51217,-0.32776 -0.78836,-0.73473 -0.81469,-0.774126 -0.7322,-1.095829 -0.52807,-2.286739 0.137,-3.083624 0.66507,-0.796885 1.78999,-1.225807 2.88167,-0.856316 l -1.7e-4,-1.73e-4 c 0.17494,0.05911 0.29581,-0.01743 0.36497,-0.138618 0.0692,-0.121183 0.0736,-0.264069 -0.0662,-0.384632 -0.71139,-0.612883 -1.65107,-0.961856 -2.59007,-0.961921 z m 0,0.15491 c 0.90082,6.3e-5 1.80653,0.336391 2.48898,0.924346 0.086,0.07409 0.0704,0.12455 0.0327,0.190567 -0.0377,0.06602 -0.0732,0.104997 -0.18071,0.06867 -1.15688,-0.391482 -2.34765,0.0622 -3.0501,0.903872 -0.70248,0.841707 -0.91445,2.120236 -0.14685,3.269031 0.0334,0.05 0.31961,0.472736 0.86003,0.818569 0.54035,0.345793 1.36266,0.600437 2.33969,0.266146 0.10747,-0.03665 0.14299,0.0023 0.18084,0.0682 0.0378,0.06588 0.0533,0.116319 -0.0322,0.190525 l -1.6e-4,1.65e-4 c -0.68282,0.589724 -1.59,0.927392 -2.49222,0.927544 -0.99423,-2.3e-5 -1.99378,-0.414108 -2.69678,-1.117131 -0.70299,-0.703025 -1.11698,-1.702537 -1.11696,-2.696774 2e-5,-0.994192 0.41413,-1.993557 1.11713,-2.696561 0.70301,-0.703006 1.70242,-1.117151 2.69661,-1.117173 z"
           style="fill:#00bfbf;stroke-width:0.519915;stroke-linejoin:round;paint-order:stroke fill markers"
           id="path31"
           inkscape:export-filename="C:\Users\rocky\OneDrive\Desktop\NightSymbol.svg"
           inkscape:export-xdpi="96"
           inkscape:export-ydpi="96" />
        <path
           d="m 106.45334,38.747026 a 3.6618035,3.6618035 0 0 0 -3.66172,3.661724 3.6618035,3.6618035 0 0 0 3.66172,3.661894 3.6618035,3.6618035 0 0 0 2.39323,-0.890778 2.9288699,2.9288699 0 0 1 -0.9403,0.157811 2.9288699,2.9288699 0 0 1 -2.92888,-2.928927 2.9288699,2.9288699 0 0 1 2.92888,-2.928714 2.9288699,2.9288699 0 0 1 0.93693,0.154612 3.6618035,3.6618035 0 0 0 -2.38986,-0.887622 z"
           style="fill:#ffeeaa;stroke-width:0.519915;stroke-linejoin:round;paint-order:stroke fill markers"
           id="path29" />
        <g
           id="g5"
           style="fill:#ffeeaa;fill-opacity:1;stroke:#000080;stroke-opacity:1"
           transform="matrix(0.08253586,0,0,0.08253586,94.026038,35.267381)">
          <path
             sodipodi:type="star"
             style="fill:#ffeeaa;fill-opacity:1;stroke:#00bfbf;stroke-width:5.1;stroke-linejoin:round;stroke-opacity:1;paint-order:stroke fill markers"
             id="path1"
             inkscape:flatsided="false"
             sodipodi:sides="5"
             sodipodi:cx="216.92915"
             sodipodi:cy="73.372307"
             sodipodi:r1="8.3773117"
             sodipodi:r2="4.1886559"
             sodipodi:arg1="-0.52359878"
             sodipodi:arg2="0.10471976"
             inkscape:rounded="0"
             inkscape:randomized="0"
             d="m 224.18412,69.183651 -3.08926,4.62649 2.05985,5.167681 -5.35469,-1.508391 -4.27823,3.555931 -0.22012,-5.558727 -4.70394,-2.969996 5.21865,-1.92709 1.37103,-5.39149 3.44542,4.36772 z"
             inkscape:transform-center-x="0.53822758"
             inkscape:transform-center-y="-0.27059615"
             transform="translate(-44.742397,-4.1104433)" />
          <path
             sodipodi:type="star"
             style="fill:#ffeeaa;fill-opacity:1;stroke:#00bfbf;stroke-width:5.1;stroke-linejoin:round;stroke-opacity:1;paint-order:stroke fill markers"
             id="path3"
             inkscape:flatsided="false"
             sodipodi:sides="5"
             sodipodi:cx="216.92915"
             sodipodi:cy="73.372307"
             sodipodi:r1="8.3773117"
             sodipodi:r2="4.1886559"
             sodipodi:arg1="-0.52359878"
             sodipodi:arg2="0.10471976"
             inkscape:rounded="0"
             inkscape:randomized="0"
             d="m 224.18412,69.183651 -3.08926,4.62649 2.05985,5.167681 -5.35469,-1.508391 -4.27823,3.555931 -0.22012,-5.558727 -4.70394,-2.969996 5.21865,-1.92709 1.37103,-5.39149 3.44542,4.36772 z"
             inkscape:transform-center-x="0.6829611"
             inkscape:transform-center-y="-0.34336173"
             transform="matrix(1.268909,0,0,1.268909,-119.51058,-7.8420815)" />
          <path
             sodipodi:type="star"
             style="fill:#ffeeaa;fill-opacity:1;stroke:#00bfbf;stroke-width:5.1;stroke-linejoin:round;stroke-opacity:1;paint-order:stroke fill markers"
             id="path5"
             inkscape:flatsided="false"
             sodipodi:sides="5"
             sodipodi:cx="216.92915"
             sodipodi:cy="73.372307"
             sodipodi:r1="8.3773117"
             sodipodi:r2="4.1886559"
             sodipodi:arg1="-0.52359878"
             sodipodi:arg2="0.10471976"
             inkscape:rounded="0"
             inkscape:randomized="0"
             d="m 224.18412,69.183651 -3.08926,4.62649 2.05985,5.167681 -5.35469,-1.508391 -4.27823,3.555931 -0.22012,-5.558727 -4.70394,-2.969996 5.21865,-1.92709 1.37103,-5.39149 3.44542,4.36772 z"
             inkscape:transform-center-x="0.44947622"
             inkscape:transform-center-y="-0.22597589"
             transform="matrix(0.83510653,0,0,0.83510653,-3.7055028,38.665206)" />
        </g>
      </g>
    </g>
    <text
       xml:space="preserve"
       transform="matrix(0.26458333,0,0,0.26458333,64.60426,100.41433)"
       id="text1"
       style="fill:#008000;text-orientation:auto;stroke-width:0.1;stroke:#ff0000;text-align:start;writing-mode:lr-tb;direction:ltr;font-size:120.00000151px;white-space:pre;shape-inside:url(#rect2)" />
    <text
       xml:space="preserve"
       style="font-size:14.4399px;text-align:start;writing-mode:lr-tb;direction:ltr;text-anchor:start;fill:#ff1c00;fill-opacity:0.5;stroke:#ff0000;stroke-width:0.0120332"
       x="125.20605"
       y="21.63434"
       id="text3"
       transform="rotate(48.373365)"><tspan
         sodipodi:role="line"
         id="tspan3"
         style="fill:#ff1c00;fill-opacity:0.5;stroke-width:0.0120332"
         x="125.20605"
         y="21.63434">star_t_pup</tspan></text>
  </g>
</svg>
