<?xml version="1.0" encoding="UTF-8" standalone="no"?>
<!-- Created with Inkscape (http://www.inkscape.org/) -->

<svg
   version="1.1"
   id="svg1"
   width="690"
   height="300"
   viewBox="0 0 690 299.99999"
   xml:space="preserve"
   sodipodi:docname="NightFurPup.svg"
   inkscape:version="1.4.3 (0d15f75, 2025-12-25)"
   xmlns:inkscape="http://www.inkscape.org/namespaces/inkscape"
   xmlns:sodipodi="http://sodipodi.sourceforge.net/DTD/sodipodi-0.dtd"
   xmlns="http://www.w3.org/2000/svg"
   xmlns:svg="http://www.w3.org/2000/svg"><sodipodi:namedview
     id="namedview1"
     pagecolor="#f8c0c0"
     bordercolor="#eeeeee"
     borderopacity="1"
     inkscape:showpageshadow="0"
     inkscape:pageopacity="0"
     inkscape:pagecheckerboard="0"
     inkscape:deskcolor="#505050"
     inkscape:zoom="0.85672648"
     inkscape:cx="370.59669"
     inkscape:cy="39.102328"
     inkscape:window-width="1920"
     inkscape:window-height="1009"
     inkscape:window-x="2552"
     inkscape:window-y="-8"
     inkscape:window-maximized="1"
     inkscape:current-layer="svg1" /><defs
     id="defs1"><rect
       x="19.5"
       y="259"
       width="259"
       height="180"
       id="rect113" /><rect
       x="51.618793"
       y="275.77164"
       width="334.46152"
       height="223.44574"
       id="rect112" /><clipPath
       clipPathUnits="userSpaceOnUse"
       id="clipPath97"><path
         style="display:inline;fill:#fbc171;fill-opacity:1;stroke:none;stroke-width:0.264583"
         d="m 167.34243,106.47312 c -3.84309,1.24926 -7.77879,2.5796 -11.09759,4.93905 -1.10784,0.77013 -1.82634,2.37723 -3.28842,2.46237 -1.29689,-0.18244 -2.35028,-1.84266 -3.73161,-1.27114 -1.49524,1.44036 -2.16505,3.53541 -3.1792,5.3128 -0.10721,0.41165 -0.98357,1.44656 -0.16953,1.51241 0.59132,-0.14357 1.16499,-0.90757 1.73127,-0.78612 -1.16904,2.76675 -2.56911,5.45395 -3.45688,8.34053 -2.4325,7.39866 -3.83689,15.18461 -3.8409,22.98056 -0.12798,0.93067 1.37189,2.0319 1.86241,0.92329 0.0769,-0.44075 0.60077,-1.45502 0.67683,-1.46633 -1.32188,2.53126 -0.91264,5.54075 -1.02521,8.29568 -0.10117,1.35137 0.16479,2.67359 0.82962,3.85334 0.0666,0.52194 0.2669,1.19924 0.9576,0.95306 4.81434,-0.63018 9.69341,-0.61389 14.49708,-0.11791 -0.13617,-0.90309 -0.56274,-1.94245 -0.46983,-2.96098 -0.69085,-3.49889 0.0213,-6.88667 1.57077,-10.01968 2.20772,-4.46403 7.07949,-8.16994 11.78305,-8.72685 4.70358,-0.5569 6.60269,-0.0186 9.40403,1.14176 4.91829,2.03716 8.76592,6.68956 9.73828,11.80725 0.65024,2.28877 0.41155,4.69793 0.18231,6.99354 -1.26952,3.5938 -4.11242,5.84359 -6.22668,8.65946 l -0.50653,0.69593 1.95328,-0.90396 c 4.10531,-2.23651 7.88527,-5.05697 11.04176,-8.5169 8.00467,-8.03028 11.6397,-20.49821 8.20492,-31.43792 -0.5369,-1.79985 -1.29443,-3.52209 -2.10021,-5.21528 0.37579,-0.70349 2.55885,-1.69794 1.07783,-2.28261 -1.01375,-0.30979 -0.046,-1.86377 -1.2018,-2.03915 -1.20758,-0.17374 -1.63616,-1.43005 -1.73014,-2.48686 -0.4557,-0.46788 -0.0409,-1.4681 -0.84755,-1.59484 -1.10034,0.0138 -2.25928,-0.45641 -2.6327,-1.56357 -0.18556,-0.51076 -0.91265,-1.25469 -1.24589,-0.42547 -0.30933,0.4104 -0.51953,1.19729 -0.89352,1.39096 -4.15471,-3.86755 -9.32414,-6.61965 -14.89665,-7.75225 -4.23489,-1.06131 -8.65571,-0.60219 -12.9702,-0.69418 z m -21.5308,38.46474 c 1.7918,0.17426 4.30369,0.47048 4.96732,2.4748 0.21017,1.81487 -0.87653,3.47485 -1.12076,5.24505 -0.54178,1.82356 -3.01753,2.70507 -4.68731,1.90387 -1.47761,-0.87154 -0.84465,-2.83679 -0.98623,-4.24225 0.0135,-0.4364 0.14038,-2.00515 -0.68738,-1.41283 1.13609,-1.07129 0.0484,-3.39826 1.85751,-3.90985 0.2151,-0.0487 0.43691,-0.0614 0.65685,-0.0588 z"
         id="path98" /></clipPath><filter
       style="color-interpolation-filters:sRGB"
       id="filter46"
       x="0"
       y="0"
       width="1"
       height="0.90997756"><feColorMatrix
         type="hueRotate"
         values="180"
         result="color1"
         id="feColorMatrix45" /><feColorMatrix
         values="1 0 0 0 0 0 1 0 0 0 0 0 1 0 0 -0.21 -0.72 -0.07 2 0 "
         result="color2"
         id="feColorMatrix46" /></filter><mask
       maskUnits="userSpaceOnUse"
       id="mask10"><path
         d="m 9.4457749,180.46931 c -0.2381462,2.02613 0.4482623,4.0983 1.0474831,6.02933 0.09015,0.28595 0.168918,0.54934 0.249078,0.78807 -0.161724,0.35744 -0.251034,0.79973 -0.226343,1.31981 0,0.0103 0.0011,0.019 0.0011,0.0305 -0.02746,0.59838 0.203596,1.24805 0.676444,1.23455 0.117687,-0.003 0.217641,-0.0472 0.301792,-0.11989 0.0047,-0.004 0.01005,-0.01 0.0155,-0.0139 0.0019,0.006 0.0033,0.0114 0.0062,0.0181 0.113623,0.30149 0.317453,0.51981 0.615469,0.52657 h 0.03359 c 0.300659,0.004 0.517906,-0.19372 0.651123,-0.47749 0.06739,0.0399 0.144016,0.064 0.228929,0.0667 0.434104,0.0124 0.66436,-0.53411 0.677994,-1.08676 2.65e-4,-0.0125 0.0011,-0.0258 0.0011,-0.0372 9.5e-5,-0.0373 -0.0019,-0.0746 -0.0031,-0.11161 2.65e-4,-0.01 0.0011,-0.0204 0.0011,-0.03 1.1e-5,-0.51435 -0.07695,-0.93782 -0.205671,-1.27847 0.09275,-0.20308 0.185251,-0.42133 0.283186,-0.65991 h -5.29e-4 c 0.839986,-1.94968 1.769962,-3.96793 1.467647,-6.12136 -0.134573,-0.92242 -0.3033,-2.97919 -2.868999,-2.97397 -2.5656991,0.005 -2.8014694,1.82509 -2.9528031,2.89694 z"
         style="display:inline;fill:#6e4503;stroke:#4a2e02;stroke-width:0.194;stroke-dasharray:none;stroke-opacity:1"
         id="path13-2" /></mask><clipPath
       clipPathUnits="userSpaceOnUse"
       id="clipPath36"><rect
         style="display:inline;opacity:1;fill:none;fill-opacity:1;stroke:#d45500;stroke-width:0.411052;stroke-dasharray:none;stroke-opacity:1"
         id="rect37"
         width="36.568195"
         height="44.318382"
         x="163.70479"
         y="221.48715"
         ry="10.240804" /></clipPath><clipPath
       clipPathUnits="userSpaceOnUse"
       id="clipPath30"><path
         d="m 71.799741,27.053748 a 10.34375,10.34375 0 0 0 -10.34375,10.34375 10.34375,10.34375 0 0 0 10.34375,10.34375 10.34375,10.34375 0 0 0 5.53124,-1.638672 8.780488,8.780488 0 0 1 -7.82617,-8.705078 8.780488,8.780488 0 0 1 7.87305,-8.708984 10.34375,10.34375 0 0 0 -5.57812,-1.634766 z"
         style="display:inline;opacity:1;fill:none;stroke:#000000;stroke-width:0.25;stroke-dasharray:none"
         id="path32" /></clipPath><clipPath
       clipPathUnits="userSpaceOnUse"
       id="clipPath32"><path
         d="m 71.799741,27.053748 a 10.34375,10.34375 0 0 0 -10.34375,10.34375 10.34375,10.34375 0 0 0 10.34375,10.34375 10.34375,10.34375 0 0 0 5.53124,-1.638672 8.780488,8.780488 0 0 1 -7.82617,-8.705078 8.780488,8.780488 0 0 1 7.87305,-8.708984 10.34375,10.34375 0 0 0 -5.57812,-1.634766 z"
         style="display:inline;opacity:1;fill:none;stroke:#000000;stroke-width:0.25;stroke-dasharray:none"
         id="path37" /></clipPath><clipPath
       clipPathUnits="userSpaceOnUse"
       id="clipPath37"><path
         d="m 71.799741,27.053748 a 10.34375,10.34375 0 0 0 -10.34375,10.34375 10.34375,10.34375 0 0 0 10.34375,10.34375 10.34375,10.34375 0 0 0 5.53124,-1.638672 8.780488,8.780488 0 0 1 -7.82617,-8.705078 8.780488,8.780488 0 0 1 7.87305,-8.708984 10.34375,10.34375 0 0 0 -5.57812,-1.634766 z"
         style="display:inline;opacity:1;fill:none;stroke:#000000;stroke-width:0.25;stroke-dasharray:none"
         id="path39" /></clipPath><clipPath
       clipPathUnits="userSpaceOnUse"
       id="clipPath39"><path
         d="m 71.799741,27.053748 a 10.34375,10.34375 0 0 0 -10.34375,10.34375 10.34375,10.34375 0 0 0 10.34375,10.34375 10.34375,10.34375 0 0 0 5.53124,-1.638672 8.780488,8.780488 0 0 1 -7.82617,-8.705078 8.780488,8.780488 0 0 1 7.87305,-8.708984 10.34375,10.34375 0 0 0 -5.57812,-1.634766 z"
         style="display:inline;opacity:1;fill:none;stroke:#000000;stroke-width:0.25;stroke-dasharray:none"
         id="path40" /></clipPath><clipPath
       clipPathUnits="userSpaceOnUse"
       id="clipPath40"><path
         d="m 71.799741,27.053748 a 10.34375,10.34375 0 0 0 -10.34375,10.34375 10.34375,10.34375 0 0 0 10.34375,10.34375 10.34375,10.34375 0 0 0 5.53124,-1.638672 8.780488,8.780488 0 0 1 -7.82617,-8.705078 8.780488,8.780488 0 0 1 7.87305,-8.708984 10.34375,10.34375 0 0 0 -5.57812,-1.634766 z"
         style="display:inline;opacity:1;fill:none;stroke:#000000;stroke-width:0.25;stroke-dasharray:none"
         id="path41" /></clipPath><clipPath
       clipPathUnits="userSpaceOnUse"
       id="clipPath41"><path
         d="m 71.799741,27.053748 a 10.34375,10.34375 0 0 0 -10.34375,10.34375 10.34375,10.34375 0 0 0 10.34375,10.34375 10.34375,10.34375 0 0 0 5.53124,-1.638672 8.780488,8.780488 0 0 1 -7.82617,-8.705078 8.780488,8.780488 0 0 1 7.87305,-8.708984 10.34375,10.34375 0 0 0 -5.57812,-1.634766 z"
         style="display:inline;opacity:1;fill:none;stroke:#000000;stroke-width:0.25;stroke-dasharray:none"
         id="path42" /></clipPath></defs><rect
     style="fill:#e9afaf;stroke:#ff0000;stroke-width:0.623622"
     id="rect1"
     width="690"
     height="300"
     x="0"
     y="0" /><g
     id="layer1"
     style="display:none"
     transform="translate(-50.523761,-17.788738)"><path
       d="m 133.60605,153.0394 c 1.37568,14.02942 7.08354,16.04953 -0.20938,18.80178 -2.31928,0.87526 -3.81074,2.90219 -3.81074,5.10023 0,5.60504 4.35558,5.44658 13.1582,5.87109 8.3484,-0.98047 9.83323,-22.15447 9.77966,-30.46688 -0.0618,-9.58759 -11.49434,-13.47569 -16.97518,-7.5185 -1.90458,2.07011 -2.06348,6.97914 -1.94256,8.21228 z"
       style="opacity:1;fill:#513300;fill-opacity:1;fill-rule:evenodd;stroke:#000058;stroke-width:1.00063;stroke-dasharray:none;stroke-opacity:1"
       id="path91"
       transform="matrix(-0.56464464,0,0,0.56464464,248.42785,57.222945)" /><path
       style="fill:#000074;fill-opacity:1;stroke:#000000;stroke-width:0.830028;stroke-opacity:0.99729"
       d="m 216.28184,212.94746 c -1.10533,-1.78845 1.58008,-4.93036 5.73697,-6.7122 5.11186,-2.19121 8.09591,-7.30025 8.09591,-13.86117 0,-5.33174 -0.97116,-7.3622 -6.03932,-12.6268 -5.37741,-5.58584 -7.19525,-5.09994 -3.98054,1.06398 1.60993,3.0869 1.87282,6.90218 0.53266,7.73044 -0.49154,0.30379 -3.09586,4.40054 -5.78738,9.10388 -6.4949,11.34966 -7.94332,12.41764 -16.84109,12.41764 -6.199,0 -7.03248,-0.20879 -7.03248,-1.76168 0,-2.31325 2.49287,-4.40807 6.94828,-5.83881 2.88563,-0.92665 4.07829,-2.08938 5.96771,-5.81798 4.16896,-8.22704 3.13507,-11.97717 -6.07732,-22.04369 -4.80056,-5.24563 -8.68504,-12.06727 -8.72737,-15.32634 -0.0275,-2.12019 -1.70866,-3.1002 -3.19792,-1.86421 -1.66592,1.38259 -9.19549,1.53849 -12.40124,0.25676 -4.28408,-1.71285 -8.15439,-1.29974 -10.58387,1.12975 -2.74106,2.74106 -6.34972,13.49821 -10.10452,30.12075 -3.23308,14.31288 -5.60696,20.49281 -8.45797,22.01863 -3.02052,1.61652 -14.95392,1.32828 -16.38475,-0.39576 -0.65376,-0.78774 -2.00888,-1.43225 -3.01138,-1.43225 -2.34001,0 -3.29056,-2.45589 -1.69477,-4.37869 0.68007,-0.81944 2.82228,-2.2989 4.76048,-3.28769 5.01563,-2.55879 6.63138,-7.15784 6.62226,-18.84956 -0.0148,-18.94092 -2.37899,-29.54089 -7.55388,-33.86789 -1.09296,-0.91389 -1.98721,-2.26437 -1.98721,-3.00106 0,-0.73669 -0.64451,-1.58676 -1.43224,-1.88904 -0.78774,-0.30228 -1.43225,-1.15499 -1.43225,-1.89491 0,-0.73992 -0.60236,-1.84521 -1.33857,-2.45621 -0.73621,-0.61101 -1.62901,-2.26814 -1.984,-3.68253 -0.35499,-1.41439 -1.68617,-4.8469 -2.95818,-7.6278 -1.27201,-2.78089 -2.31275,-5.37751 -2.31275,-5.77025 0,-0.39275 -0.68322,-1.68952 -1.51827,-2.88173 -1.20443,-1.71955 -1.79657,-1.93668 -2.8645,-1.05037 -1.11381,0.92438 -1.34623,0.5531 -1.34623,-2.1506 0,-4.50394 -1.43949,-5.55888 -7.59092,-5.56303 -6.504471,-0.004 -10.861564,-2.40013 -13.17037,-7.24175 -1.501973,-3.14967 -1.510845,-3.531868 -0.10543,-4.54199 0.843999,-0.606612 4.380423,-3.141546 7.858718,-5.633184 3.914652,-2.804217 6.324172,-5.208555 6.324172,-6.310566 0,-0.979171 1.36112,-4.311493 3.0247,-7.405158 2.82369,-5.251048 3.02991,-6.290043 3.10321,-15.634661 0.0989,-12.613559 0.96978,-13.044782 8.65833,-4.287398 6.31235,7.189855 6.3587,7.183671 10.81647,-1.443204 1.45982,-2.825102 3.14949,-5.301641 3.75482,-5.50342 1.28978,-0.429926 4.9882,6.604991 7.40354,14.082591 2.40469,7.444632 5.71364,13.7781 11.22429,21.48374 7.47489,10.452281 9.12113,11.93541 13.24801,11.93541 1.97236,0 5.01536,0.84328 6.76223,1.87395 2.66335,1.57142 6.10206,2.02405 21.29961,2.80361 10.65218,0.54641 20.48524,1.56186 23.85249,2.46323 11.71162,3.13503 23.64083,12.65493 30.4464,24.29721 1.97243,3.37422 5.54753,8.63137 7.94469,11.68257 2.39716,3.05121 4.47419,6.60185 4.61563,7.89033 0.14144,1.28847 1.20837,4.83964 2.37095,7.8915 2.29249,6.01788 3.30673,12.71007 1.9263,12.71007 -0.50629,0 -0.49519,1.27643 0.0269,3.0969 1.13995,3.97477 1.14523,9.31592 0.009,9.31592 -0.48344,0 -1.16374,1.29649 -1.51177,2.8811 -0.34804,1.58459 -3.2384,6.8481 -6.42304,11.6967 -6.43072,9.79072 -6.01081,9.81406 -8.88666,-0.49401 -0.84246,-3.01966 -1.86945,-5.49029 -2.2822,-5.49029 -0.41276,0 -2.17781,3.69197 -3.92234,8.2044 -4.78066,12.36567 -5.268,12.80192 -14.3013,12.80192 -4.13215,0 -7.77307,-0.42079 -8.09093,-0.9351 z m 21.47154,-46.8629 c 0,-2.06963 -0.38764,-3.76297 -0.86142,-3.76297 -1.46536,0 -2.83502,5.23113 -1.83673,7.01498 1.39447,2.49179 2.69815,0.92051 2.69815,-3.25201 z"
       id="path1" /><g
       id="g89"
       style="opacity:1"><path
         d="m 372.87695,153.2212 v 2.47803 c 0,4.81861 2.05266,9.59673 7.62305,15.43554 -3.86866,0.24451 -6.91016,2.74669 -6.91016,5.80468 -10e-6,5.6041 6.76099,5.00319 11.82813,5 0.2722,0.063 0.54765,0.10157 0.82617,0.10157 h 0.41992 c 8.893,0 8.78274,-9.45185 7.48413,-28.60588 -0.76137,-18.21314 -20.59537,-15.09754 -21.27124,-0.21394 z"
         style="fill:#513300;fill-opacity:1;stroke:#000058;stroke-width:0.869291;stroke-opacity:1"
         id="path57" /><path
         d="m 433.21488,152.52384 c -1.26527,15.18873 14.65738,17.45881 7.28512,18.61093 -5.03768,0.78728 -6.91016,2.74669 -6.91016,5.80468 -10e-6,5.6041 6.76099,5.00319 11.82813,5 0.2722,0.063 0.54765,0.10157 0.82617,0.10157 h 0.41992 c 7.56635,0 8.61527,-6.84216 8.02399,-21.90874 -0.0711,-1.81163 -0.16591,-3.74217 -0.27596,-5.79402 -0.17204,-0.56499 -0.36258,-1.10774 -0.56995,-1.62814 -4.60677,-11.56067 -17.52281,-12.08682 -20.62726,-0.18628 z"
         style="fill:#513300;fill-opacity:1;stroke:#000058;stroke-width:0.869291;stroke-opacity:1"
         id="path19" /><path
         d="m 398.87695,149.5957 v 7.43555 c 0,5.24148 0.59865,10.09275 1.62305,14.10352 -3.86866,0.24451 -6.91016,2.74669 -6.91016,5.80468 -10e-6,5.6041 8.76099,5.00319 13.82813,5 0.2722,0.063 0.54765,0.10157 0.82617,0.10157 h 4.41992 c 14.11243,0 6.53864,-23.94605 7.45948,-33.81789 -1.46027,-14.25371 -21.24659,-13.15643 -21.24659,1.37257 z"
         style="fill:#513300;fill-opacity:1;stroke:#000058;stroke-width:0.869291;stroke-opacity:1"
         id="path20" /></g></g><g
     id="layer2"
     style="display:inline"
     transform="translate(-50.523761,-17.788738)"><g
       id="layer3"
       style="display:inline" /><g
       id="g121"
       transform="matrix(1.6442226,0,0,1.6442226,33.115812,-49.007227)"
       style="display:inline;stroke:#d45500;stroke-opacity:1"><rect
         style="opacity:1;fill:#020035;fill-opacity:1;stroke:#d45500;stroke-width:0.3;stroke-dasharray:none;stroke-opacity:1"
         id="rect96"
         width="9.0115452"
         height="23.486942"
         x="212.8156"
         y="129.6781"
         ry="5.5418634" /><rect
         style="opacity:1;fill:#00ffff;fill-opacity:1;stroke:#d45500;stroke-width:0.3;stroke-dasharray:none;stroke-opacity:1"
         id="rect95"
         width="9.0115452"
         height="23.486942"
         x="-232.86847"
         y="129.6781"
         ry="5.5418634"
         transform="scale(-1,1)" /></g><rect
       style="display:inline;opacity:1;fill:#00ffff;fill-opacity:1;stroke:#d45500;stroke-width:0.411052;stroke-dasharray:none;stroke-opacity:1"
       id="rect91"
       width="36.568195"
       height="44.318382"
       x="381.33646"
       y="144.93268"
       ry="10.240804" /><path
       style="display:inline;opacity:1;fill:#010020;fill-opacity:1;stroke:#000000;stroke-width:0.411908;stroke-dasharray:none;stroke-opacity:1"
       d="m 185.70906,235.79075 c 0.0741,1.6673 2.83502,1.8771 3.8479,3.20356 0.90394,1.18379 0.45512,3.55333 1.85366,4.06572 1.61886,0.59308 3.05236,-1.63219 4.67803,-2.20611 1.29294,-0.45646 3.17429,0.12661 3.99736,-0.97009 0.93481,-1.24555 -0.15309,-3.11101 -0.21053,-4.66734 -0.0559,-1.52122 0.85678,-3.40539 -0.12964,-4.56492 -0.89322,-1.05002 -2.73264,-0.41261 -4.0617,-0.77873 -1.64913,-0.4543 -3.26862,-2.46342 -4.82374,-1.7509 -1.32462,0.60688 -0.76066,2.86333 -1.55358,4.08574 -0.92107,1.42005 -3.67332,1.89211 -3.59803,3.58307 z"
       id="path36"
       clip-path="url(#clipPath36)"
       transform="translate(217.63169,-76.554472)" /><path
       style="fill:#020035;fill-opacity:1;stroke:#d45500;stroke-width:0.0181678;stroke-dasharray:none;stroke-opacity:1"
       d="m 381.65054,156.05878 c 1.23052,1.34306 2.54362,2.63005 4.03053,3.68737 3.29757,2.42742 7.25619,3.93848 11.3146,4.39981 0.73557,0.092 1.49002,0.0979 2.22627,0.17629 0.17566,0.17184 0.0596,0.46151 0.1019,0.67946 0.0425,6.27564 0.0167,12.55199 0.0233,18.82771 v 5.19594 c -0.0702,0.28039 -0.43001,0.12387 -0.63653,0.16403 -0.77368,-0.007 -1.55312,0.0183 -2.32316,-0.0106 -0.23123,-0.0867 -0.0938,-0.39972 -0.13019,-0.58784 -0.009,-2.07631 0.027,-4.15795 -0.0466,-6.23024 -0.64432,-8.68913 -10.70005,-10.06604 -14.4651,-2.55684 -0.10347,0.20519 -0.38017,0.0443 -0.32225,-0.15292 -0.0458,-7.71434 -0.0194,-15.42897 -0.0251,-23.14344 -0.001,-0.16213 -0.0497,-0.51276 0.21059,-0.45503 l 0.0337,0.005 z"
       id="path120" /><path
       id="path101"
       d="m 181.98887,265.80469 h 8.04238 c 5.67341,0 10.24219,-4.56683 10.24219,-10.24024 v -23.83593 c 0,-5.67341 -4.56878,-10.24219 -10.24219,-10.24219 h -8.04238 z"
       style="display:inline;opacity:1;fill:none;stroke:#d45500;stroke-width:0.411052"
       transform="translate(217.63169,-76.554472)" /><g
       id="g120"
       transform="matrix(1.6442226,0,0,1.6442226,33.115812,-49.007227)"
       style="display:inline;stroke:#d45500;stroke-opacity:1"><rect
         style="opacity:1;fill:#00ffff;fill-opacity:1;stroke:#d45500;stroke-width:0.3;stroke-dasharray:none;stroke-opacity:1"
         id="rect93"
         width="9.0115452"
         height="23.486942"
         x="-234.02472"
         y="135.6781"
         ry="5.5418634"
         transform="scale(-1,1)" /><rect
         style="opacity:1;fill:#020035;fill-opacity:1;stroke:#d45500;stroke-width:0.3;stroke-dasharray:none;stroke-opacity:1"
         id="rect92"
         width="9.0115452"
         height="23.486942"
         x="211.78435"
         y="135.9281"
         ry="5.5418634" /></g><path
       id="rect38"
       style="display:inline;opacity:1;fill:#00ffff;stroke:#d45500;stroke-width:0.411052"
       d="m 181.98887,221.48633 h -5.9e-4 v 44.31836 h 5.9e-4 z"
       transform="translate(217.63169,-76.554472)" /><path
       style="display:inline;opacity:1;fill:#00ffff;fill-opacity:1;fill-rule:nonzero;stroke:#d45500;stroke-width:0.25;stroke-dasharray:none;stroke-opacity:1"
       d="m 264.33726,115.32484 a 14.37087,14.37087 0 0 1 -28.74174,0 14.37087,14.37087 0 0 1 28.74174,0 z"
       id="path90"
       transform="matrix(-1.6442226,0,0,1.6442226,810.62003,-49.007227)" /><path
       d="m 399.62131,116.96291 c 0.004,0.43207 0.004,0.85659 0.007,1.2874 0.002,0.18534 0.004,0.36784 0.005,0.55253 0.61609,3.18904 -0.26145,6.61608 0.99854,9.51088 3.63079,8.34202 0.91901,16.96227 -0.915,25.29395 -2.65546,12.06316 -0.0991,23.85561 -0.0991,35.58843 h -0.41108 -0.41103 c 0,-8.25906 0.0298,-16.90336 0.0629,-25.16131 -0.051,-0.004 -0.10815,-0.0167 -0.15126,-0.007 -3.0558,-0.12925 -6.09155,-0.8269 -8.87269,-2.10655 -4.59341,-2.07331 -8.46724,-5.67429 -10.88672,-10.09347 -1.6477,-2.9883 -2.63902,-6.34135 -2.86782,-9.74642 -0.029,-1.22787 -0.0533,-2.46047 0.028,-3.68666 0.0778,-0.67761 0.14721,-1.3599 0.27613,-2.02953 0.0129,-0.0181 0.031,-0.0209 0.0482,-0.0305 10e-4,-0.007 4.8e-4,-0.0168 0.003,-0.023 0.37078,-1.99626 1.00771,-3.94223 1.87546,-5.77725 0.0973,-0.21605 0.30538,-0.34859 0.46238,-0.51703 3.46104,-3.30837 6.92033,-6.61942 10.38884,-9.91996 0.3221,-0.29932 0.63236,-0.61027 0.96657,-0.89599 0.0766,-0.0682 0.0919,-0.20728 0.20556,-0.24081 2.03488,-0.87157 4.19726,-1.45186 6.39382,-1.72453 0.68815,-0.0781 1.37838,-0.13741 2.07134,-0.14446 -5.9e-4,0.0755 4.8e-4,0.16386 0,0.2408 z m -9.91979,14.21972 c -0.80819,0.005 -1.57184,0.37167 -2.23198,0.79986 -0.94451,0.62426 -1.88552,1.4439 -2.59815,2.32799 -0.28262,0.36195 -0.55845,0.72524 -0.75772,1.14316 -0.0684,0.1432 -0.11592,0.31459 -0.0304,0.46264 0.0451,0.1099 0.11484,0.20689 0.17979,0.30522 0.005,-5e-5 0.0115,2e-5 0.0203,0 0.0333,0.0106 0.0733,0.0253 0.10882,0.0397 0.95548,1.40036 2.46155,2.10734 3.96924,2.51771 3.00488,0.83766 5.37112,-1.4186 5.54947,-1.75398 0.0115,-2.51384 -3.4937,-5.48956 -4.20719,-5.84085 z"
       style="display:inline;fill:#020035;fill-opacity:1;stroke:none;stroke-width:1.64441;stroke-opacity:1"
       id="path102" /><g
       id="g118"
       style="display:inline;stroke:#d45500;stroke-opacity:1"
       transform="matrix(1.6442226,0,0,1.6442226,33.115812,-49.007227)"><g
         id="g94"
         style="fill:#020035;fill-opacity:1;stroke:#d45500;stroke-opacity:1"
         transform="matrix(-1,0,0,1,445.80914,0.21875)"><path
           style="fill:#020035;fill-opacity:1;stroke:#d45500;stroke-width:0.45;stroke-dasharray:none;stroke-opacity:1"
           d="m 250.40419,119.14749 c 3.33726,-5.68302 5.84085,-9.83102 7.71713,-12.85854 2.87393,-4.63732 6.85179,-3.94669 8.46859,1.27275 l 5.20426,16.8007"
           id="path18"
           transform="matrix(0.40701575,0.23499065,-0.23499065,0.40701575,154.63411,-5.2762247)" /><path
           style="fill:#020035;fill-opacity:1;stroke:#d45500;stroke-width:0.4;stroke-dasharray:none;stroke-opacity:1"
           d="m 254.897,119.24074 c 2.82961,-4.81853 4.74137,-7.94707 6.03031,-9.97824 1.35688,-2.13823 3.23564,-1.79362 3.98632,0.62978 l 3.95065,12.7537"
           id="path21"
           transform="matrix(0.40701575,0.23499065,-0.23499065,0.40701575,154.83776,-5.0586992)" /></g><g
         id="g100"
         transform="translate(0,0.21875)"
         style="fill:#513300;fill-opacity:1;stroke:#d45500;stroke-opacity:1"><path
           style="fill:#00ffff;fill-opacity:1;stroke:#d45500;stroke-width:0.45;stroke-dasharray:none;stroke-opacity:1"
           d="m 250.40419,119.14749 c 3.33726,-5.68302 5.84085,-9.83102 7.71713,-12.85854 2.87393,-4.63732 6.85179,-3.94669 8.46859,1.27275 l 5.20426,16.8007"
           id="path99"
           transform="matrix(0.40701575,0.23499065,-0.23499065,0.40701575,154.63411,-5.2762247)" /><path
           style="fill:#00ffff;fill-opacity:1;stroke:#d45500;stroke-width:0.4;stroke-dasharray:none;stroke-opacity:1"
           d="m 254.897,119.24074 c 2.82961,-4.81853 4.74137,-7.94707 6.03031,-9.97824 1.35688,-2.13823 3.23564,-1.79362 3.98632,0.62978 l 3.95065,12.7537"
           id="path100"
           transform="matrix(0.40701575,0.23499065,-0.23499065,0.40701575,154.83776,-5.0586992)" /></g></g><circle
       style="display:inline;fill:none;fill-opacity:1;stroke:#d45500;stroke-width:0.419024;stroke-dasharray:none;stroke-opacity:1"
       id="path125"
       cx="399.62027"
       cy="140.69514"
       r="23.545874" /><g
       id="g16"
       transform="matrix(1.6442226,0,0,1.6442226,121.39886,-49.058597)"
       style="display:inline;stroke:#d45500;stroke-width:0.25;stroke-dasharray:none;stroke-opacity:1"><path
         style="opacity:1;fill:#ffdd55;fill-opacity:1;stroke:#d45500;stroke-width:0.25;stroke-dasharray:none;stroke-opacity:1"
         d="m 167.33501,115.49405 c -0.33744,0.79 0.89442,1.45214 1.78186,1.86183 1.04148,-0.28262 2.30762,-1.02129 1.97373,-1.86183 -0.46215,-1.16343 -3.26388,-1.15125 -3.75559,0 z"
         id="path96" /><path
         style="fill:#000000;fill-opacity:0;stroke:#d45500;stroke-width:0.25;stroke-linecap:round;stroke-dasharray:none;stroke-opacity:1"
         d="m 169.14816,117.37936 c 0.2441,0.51616 1.02057,1.9623 1.777,1.2788"
         id="path14" /><path
         style="fill:#000000;fill-opacity:0;stroke:#d45500;stroke-width:0.25;stroke-linecap:round;stroke-dasharray:none;stroke-opacity:1"
         d="m 169.14816,117.37936 c -0.2441,0.51616 -1.02057,1.9623 -1.777,1.2788"
         id="path92" /></g><g
       id="g119"
       style="display:inline;stroke:#d45500;stroke-opacity:1"
       transform="matrix(1.6442226,0,0,1.6442226,33.115812,-49.007227)"><g
         id="g15"
         transform="matrix(0.43865067,0,0,0.43865067,150.98565,71.887925)"
         style="stroke:#d45500;stroke-width:0.56993;stroke-dasharray:none;stroke-opacity:1"><path
           style="display:inline;fill:none;stroke:#d45500;stroke-width:0.56993;stroke-dasharray:none;stroke-opacity:1"
           d="m 156.23672,93.660836 c -7.40784,7.685544 -14.27189,-0.795617 -14.1875,-1.3125 -0.61179,-0.444937 5.0179,-7.810848 8.8125,-6.125 2.8547,1.268271 5.375,7.4375 5.375,7.4375 z"
           id="path15" /></g><g
         id="g17"
         transform="matrix(-0.43865067,0,0,0.43865067,299.84678,71.887925)"
         style="fill:#ffdd55;fill-opacity:1;stroke:#d45500;stroke-width:0.56993;stroke-dasharray:none;stroke-opacity:1"><path
           style="display:inline;fill:#ffdd55;fill-opacity:1;stroke:#d45500;stroke-width:0.56993;stroke-dasharray:none;stroke-opacity:1"
           d="m 168.24684,93.660836 c -7.40784,7.685544 -14.27189,-0.795617 -14.1875,-1.3125 -0.61179,-0.444937 5.0179,-7.810848 8.8125,-6.125 2.8547,1.268271 5.375,7.4375 5.375,7.4375 z"
           id="path17" /></g></g><path
       d="m 401.37814,113.82551 c -1.36429,-0.004 -2.69896,0.38174 -3.8505,1.1142 -1.92028,1.22209 -3.1351,3.28316 -3.28832,5.53655 -0.007,0.15031 -0.0197,0.29747 -0.0202,0.44945 -0.002,0.36962 0.0296,0.74004 0.0888,1.10456 0.0475,0.30957 0.11242,0.61758 0.19908,0.9187 0.18913,0.65058 0.46777,1.26875 0.83186,1.83994 2.11583,3.32408 6.52525,4.30642 9.84918,2.19034 0.1783,-0.12285 0.35375,-0.25369 0.52005,-0.39205 -2.04402,0.19782 -4.05069,-0.65527 -5.32746,-2.26399 -0.15717,-0.20123 -0.29788,-0.4126 -0.42711,-0.62923 -0.5334,-0.8951 -0.82834,-1.91124 -0.85427,-2.94805 -0.009,-0.051 -0.007,-0.10496 0,-0.16402 0.0687,-0.40059 0.59687,-0.92047 0.66143,-1.294 0.11475,-0.67059 0.44128,-1.28784 0.92829,-1.76323 -0.26667,0.0283 -0.53256,0.0844 -0.78697,0.17062 0.0493,-0.14306 0.11246,-0.28079 0.17992,-0.41439 0.0507,-0.0997 0.1042,-0.1947 0.16686,-0.28897 0.12229,-0.18787 0.26525,-0.36519 0.424,-0.52358 0.0784,-0.0784 0.16495,-0.15691 0.25378,-0.22803 -0.50188,0.0541 -0.99838,0.16754 -1.47719,0.32757 0.002,-0.009 0.009,-0.024 0.0181,-0.0361 0.3748,-1.06185 1.03566,-2.00081 1.91396,-2.70683 z"
       style="display:inline;opacity:1;fill:#ffdd55;fill-opacity:1;stroke:#d45500;stroke-width:0.16444;stroke-dasharray:none;stroke-opacity:1"
       id="path28" /></g><g
     id="g36"
     style="display:inline;opacity:1"
     transform="translate(-43.64171,-17.788738)"><path
       style="fill:#020035;fill-opacity:1;stroke:#d45500;stroke-width:0.45;stroke-dasharray:none;stroke-opacity:1"
       d="m 250.40419,119.14749 c 3.33726,-5.68302 5.84085,-9.83102 7.71713,-12.85854 2.87393,-4.63732 6.85179,-3.94669 8.46859,1.27275 l 5.20426,16.8007"
       id="path12"
       transform="matrix(-0.70114506,-0.02805617,-0.02805617,0.70114506,706.94582,47.345887)" /><path
       style="fill:#020035;fill-opacity:1;stroke:#d45500;stroke-width:0.597205;stroke-dasharray:none;stroke-opacity:1"
       d="m 582.66099,178.83849 c 2.35186,-3.81409 -20.51502,-11.03061 -20.51502,-11.03061 0,0 -0.4986,21.16684 1.26779,21.17924 l 5.22723,0.0353 6.4706,-4.34733 c 6.70994,-4.27101 6.84109,-4.68926 7.5494,-5.838 z"
       id="path13" /><g
       id="g22"
       transform="matrix(0.8601602,0,0,0.8601602,407.50485,51.759527)"
       style="fill:#020035;fill-opacity:1;stroke:#d45500;stroke-width:0.694313;stroke-dasharray:none;stroke-opacity:1"><path
         d="m 170.39912,145.91014 c -0.37233,5.50109 5.27896,10.55998 7.46431,13.2435 3.85551,4.73446 8.83859,7.4446 4.13331,8.17993 -5.03768,0.78728 -6.91016,2.74669 -6.91016,5.80468 -1e-5,5.6041 6.76099,5.00319 13.89301,5.05238 3.28055,0.0226 6.47856,-1.29794 6.30028,-5.05224 -0.48661,-10.24729 -0.6703,-18.89724 -3.92267,-24.37023 l -5.70684,-9.60329 c -4.67119,-7.86053 -14.58538,-3.09263 -15.25124,6.74527 z"
         style="fill:#020035;fill-opacity:1;stroke:#d45500;stroke-width:0.694313;stroke-dasharray:none;stroke-opacity:1"
         id="path16" /><path
         d="m 130.76397,151.74437 v 1.43579 c 0,5.24236 0.58619,10.09444 1.58927,14.10588 -3.78815,0.24455 -6.76635,2.74715 -6.76635,5.80565 -1e-5,5.60504 8.57866,5.00403 13.54035,5.00084 0.26653,0.063 0.53625,0.10159 0.80897,0.10159 h 4.32794 c 2.01964,0 3.35802,-0.65234 4.22439,-1.75188 1.40824,-10.17299 1.20088,-9.39977 0.79325,-14.91229 0,0 0.0383,-5.29633 0,-10.96897 -0.0732,-10.85648 -18.51782,-10.07943 -18.51782,1.18339 z"
         style="fill:#020035;fill-opacity:1;stroke:#d45500;stroke-width:0.694313;stroke-dasharray:none;stroke-opacity:1"
         id="path22" /></g><g
       id="g27"
       transform="matrix(0.8601602,0,0,0.8601602,407.50485,55.394677)"
       style="fill:#00ffff;stroke:#d45500;stroke-width:0.694313;stroke-dasharray:none;stroke-opacity:1"><path
         d="m 147.21875,86.004297 -32.69752,36.818133 17.094,25.99007 c 5.91326,8.60594 15.59221,7.33763 26.38282,6.83203 0.389,0.0325 0.78038,0.0547 1.17578,0.0547 h 29.14648 c 6.7475,0 12.61751,-4.8017 15.78154,-11.9795 8.03107,-10.74083 6.60653,-38.46258 -15.78154,-38.66699 -8.56055,0.59546 -17.95532,3.68605 -25.68164,0 -7.37308,-3.51752 -15.41992,-19.048443 -15.41992,-19.048443 z"
         style="fill:#00ffff;fill-opacity:1;stroke:#d45500;stroke-width:0.694313;stroke-dasharray:none;stroke-opacity:1"
         id="path23" /><path
         style="fill:#00ffff;fill-opacity:1;stroke:#d45500;stroke-width:0.694313;stroke-dasharray:none;stroke-opacity:1"
         d="m 203.05839,111.87984 c 6.39127,-5.41516 22.25316,-16.473672 35.13784,-7.01053 3.86032,2.83521 7.46557,7.51129 10.48827,14.73118 7.96073,17.732 -1.07042,26.69918 15.8155,40.46823 -53.95496,-1.02723 -14.97534,-37.56056 -38.89355,-46.35644 -4.32192,-1.58938 -10.5334,-0.60332 -19.53025,3.1952"
         id="path24" /><path
         style="fill:#ffdd55;fill-opacity:1;stroke:#d45500;stroke-width:0.694313;stroke-dasharray:none;stroke-opacity:1"
         d="m 94.700087,100.5382 c -3.575996,0.65271 -3.215703,2.83623 -3.181651,3.31049 -0.01966,0.48917 0.508755,1.74149 0.763127,2.1426 0.827214,1.3045 3.361633,-0.27315 3.467673,-2.21192 0.0859,-1.57059 -0.940054,-3.26108 -1.049149,-3.24117 z"
         id="path26" /><path
         d="m 130.58594,78.177734 c -9.72945,0.03008 -18.53514,7.944381 -22.49024,17.105466 l -15.377035,5.82118 c -0.736751,0.27891 -1.316687,1.14472 -1.22331,1.92673 1.058275,8.8629 8.552575,8.49267 17.383555,12.65248 1.74615,1.65698 4.06159,4.76633 6.775,8.18348 3.33666,4.20203 9.44014,5.20296 14.93203,5.21301 13.63957,1.7e-4 24.69684,-11.39463 24.69726,-25.45117 -4.2e-4,-14.056549 -11.05769,-25.451349 -24.69726,-25.451176 z"
         style="display:inline;opacity:1;fill:#00ffff;fill-opacity:1;stroke:#d45500;stroke-width:0.694313;stroke-dasharray:none;stroke-opacity:1"
         id="path25" /><path
         style="fill:#00ffff;fill-opacity:1;stroke:#d45500;stroke-width:0.433946;stroke-dasharray:none;stroke-opacity:1"
         d="m 95.939064,110.48923 c 1.234692,0.0915 2.362296,-0.10408 3.345496,-0.43253"
         id="path27" /><rect
         style="fill:#ffdd55;fill-opacity:1;stroke:#d45500;stroke-width:0.182257;stroke-dasharray:none;stroke-opacity:1"
         id="rect27"
         width="1.9474885"
         height="15.064616"
         x="-143.20786"
         y="-1.9945083"
         transform="matrix(-0.83660418,-0.54780785,-0.54780785,0.83660418,0,0)" /></g><path
       d="m 148.37407,355.93722 c 3.32327,5.34441 5.16863,12.3448 5.17078,19.61233 -0.0179,8.91544 -2.80105,18.61344 -7.55145,24.08287 5.56734,7.28258 13.9067,10.23463 22.72563,10.26947 16.26249,-2.4e-4 29.44556,-14.04006 29.44532,-31.35838 -1.4e-4,-3.82283 -0.66925,-9.39746 -3.65927,-15.14964 1.38794,0.008 3.85051,0.62246 3.35317,-1.00993 -2.27387,-1.22076 1.68864,-4.60698 -5.52105,-6.28876 1.9155,-3.51406 -1.71713,-1.09052 -3.69371,-0.63935 -5.24335,-5.13436 -12.23995,-8.26929 -19.92446,-8.27003 -7.58729,0.0191 -14.87551,3.15185 -20.34496,8.75142 z"
       style="display:none;fill:#ffdd55;fill-opacity:1;stroke:#d45500;stroke-width:0.597205;stroke-dasharray:none;stroke-opacity:1"
       id="path29" /><g
       id="g31"
       transform="matrix(0.8601602,0,0,0.8601602,407.50485,55.394677)"
       style="fill:#00ffff;stroke:#d45500;stroke-width:0.694313;stroke-dasharray:none;stroke-opacity:1"><path
         d="m 133.60605,153.0394 c 1.37568,14.02942 7.08354,16.04953 -0.20938,18.80178 -2.31928,0.87526 -3.81074,2.90219 -3.81074,5.10023 0,5.60504 4.35558,5.44658 13.1582,5.87109 8.3484,-0.98047 9.83323,-22.15447 9.77966,-30.46688 -0.0618,-9.58759 -11.49434,-13.47569 -16.97518,-7.5185 -1.90458,2.07011 -2.06348,6.97914 -1.94256,8.21228 z"
         style="fill:#00ffff;fill-opacity:1;fill-rule:evenodd;stroke:#d45500;stroke-width:0.694313;stroke-dasharray:none;stroke-opacity:1"
         id="path31" /><circle
         style="display:inline;fill:none;stroke:#d45500;stroke-width:0.432185;stroke-opacity:1;paint-order:stroke fill markers"
         id="path11-7"
         cx="-189.71251"
         cy="147.66945"
         r="8.8066626"
         transform="scale(-1,1)" /><path
         d="m 190.18152,139.09607 c 6.29556,0.0708 10.04596,8.56648 12.11398,13.7694 2.46328,5.87059 3.78222,13.73988 4.26883,23.98717 0.17828,3.7543 -3.02051,5.0748 -6.30106,5.0522 -7.13202,-0.0492 -13.89414,0.55189 -13.89412,-5.0522 0,-3.05799 1.87152,-5.03369 6.91186,-5.80379 4.7485,-0.72551 1.3291,-2.5898 -4.13486,-8.18116 -2.16599,-2.21649 -6.53521,-6.61732 -7.72702,-11.83464 -0.14142,-0.61904 -0.24099,-1.24944 -0.28383,-1.88918 -0.32877,-4.90962 2.81696,-8.43574 6.34193,-9.6412 0.84182,-0.28788 1.76154,-0.41704 2.70435,-0.40644 z"
         style="display:inline;fill:#00ffff;fill-opacity:1;stroke:#000000;stroke-width:0.462157;paint-order:stroke fill markers"
         id="path38-1" /></g><path
       style="display:inline;fill:#ffdd55;fill-opacity:1;stroke:#d45500;stroke-width:0.329672;stroke-dasharray:none;stroke-opacity:1"
       d="m 509.12364,140.74265 c 3.7605,5.06552 7.24483,-0.5243 7.20182,-0.86478 0.31056,-0.29331 -2.54731,-5.14808 -4.47359,-4.03695 -1.449,0.83615 -2.72823,4.90173 -2.72823,4.90173 z"
       id="path33" /><g
       id="g35"
       transform="matrix(-1.4930537,0,0,1.4930537,867.44341,-37.808057)"
       style="display:inline;fill:#00ffff;fill-opacity:1;stroke:#d45500;stroke-opacity:1"><path
         style="fill:#00ffff;fill-opacity:1;stroke:#d45500;stroke-width:0.45;stroke-dasharray:none;stroke-opacity:1"
         d="m 250.40419,119.14749 c 3.33726,-5.68302 5.84085,-9.83102 7.71713,-12.85854 2.87393,-4.63732 6.85179,-3.94669 8.46859,1.27275 l 5.20426,16.8007"
         id="path34"
         transform="matrix(0.4696055,-0.01879103,0.01879103,0.4696055,105.55349,58.534319)" /><path
         style="fill:#00ffff;fill-opacity:1;stroke:#d45500;stroke-width:0.4;stroke-dasharray:none;stroke-opacity:1"
         d="m 254.897,119.24074 c 2.82961,-4.81853 4.74137,-7.94707 6.03031,-9.97824 1.35688,-2.13823 3.23564,-1.79362 3.98632,0.62978 l 3.95065,12.7537"
         id="path35"
         transform="matrix(0.4696055,-0.01879103,0.01879103,0.4696055,105.84184,58.609408)" /></g></g><g
     id="g11"
     style="display:inline;opacity:1"
     transform="matrix(-1,0,0,1,343.43551,-17.788738)"><path
       style="fill:#00ffff;fill-opacity:1;stroke:#d45500;stroke-width:0.45;stroke-dasharray:none;stroke-opacity:1"
       d="m 250.40419,119.14749 c 3.33726,-5.68302 5.84085,-9.83102 7.71713,-12.85854 2.87393,-4.63732 6.85179,-3.94669 8.46859,1.27275 l 5.20426,16.8007"
       id="path116"
       transform="matrix(-0.70114497,-0.02805617,-0.02805617,0.70114497,296.29024,47.756958)" /><path
       style="fill:#020035;fill-opacity:1;stroke:#d45500;stroke-width:0.597206;stroke-dasharray:none;stroke-opacity:1"
       d="m 172.00543,179.24954 c 2.35185,-3.81408 -20.51503,-11.0306 -20.51503,-11.0306 0,0 -0.49859,21.16683 1.2678,21.17923 l 5.22723,0.0351 6.47059,-4.34733 c 6.70995,-4.27102 6.8411,-4.68951 7.54941,-5.838 z"
       id="path2" /><g
       id="g4"
       transform="matrix(0.86016011,0,0,0.86016011,-3.1506712,52.170596)"
       style="fill:#00ffff;fill-opacity:1;stroke:#d45500;stroke-width:0.694313;stroke-dasharray:none;stroke-opacity:1"><path
         d="m 170.39912,145.91014 c -0.37233,5.50109 5.27896,10.55998 7.46431,13.2435 3.85551,4.73446 8.83859,7.4446 4.13331,8.17993 -5.03768,0.78728 -6.91016,2.74669 -6.91016,5.80468 -1e-5,5.6041 6.76099,5.00319 13.89301,5.05238 3.28055,0.0226 6.47856,-1.29794 6.30028,-5.05224 -0.48661,-10.24729 -0.6703,-18.89724 -3.92267,-24.37023 l -5.70684,-9.60329 c -4.67119,-7.86053 -14.58538,-3.09263 -15.25124,6.74527 z"
         style="fill:#00ffff;fill-opacity:1;stroke:#d45500;stroke-width:0.694313;stroke-dasharray:none;stroke-opacity:1"
         id="path3" /><path
         d="m 130.76397,151.74437 v 1.43579 c 0,5.24236 0.58619,10.09444 1.58927,14.10588 -3.78815,0.24455 -6.76635,2.74715 -6.76635,5.80565 -1e-5,5.60504 8.57866,5.00403 13.54035,5.00084 0.26653,0.063 0.53625,0.10159 0.80897,0.10159 h 4.32794 c 2.01964,0 3.35802,-0.65234 4.22439,-1.75188 1.40824,-10.17299 1.20088,-9.39977 0.79325,-14.91229 0,0 0.0383,-5.29633 0,-10.96897 -0.0732,-10.85648 -18.51782,-10.07943 -18.51782,1.18339 z"
         style="fill:#00ffff;fill-opacity:1;stroke:#d45500;stroke-width:0.694313;stroke-dasharray:none;stroke-opacity:1"
         id="path4" /></g><g
       id="g7"
       transform="matrix(0.86016011,0,0,0.86016011,-3.1506712,55.80575)"
       style="stroke:#d45500;stroke-width:0.694313;stroke-dasharray:none;stroke-opacity:1"><path
         d="m 147.21875,86.004297 -32.69752,36.818133 17.094,25.99007 c 5.91326,8.60594 15.59221,7.33763 26.38282,6.83203 0.389,0.0325 0.78038,0.0547 1.17578,0.0547 h 29.14648 c 6.7475,0 12.61751,-4.8017 15.78154,-11.9795 8.03107,-10.74083 6.60653,-38.46258 -15.78154,-38.66699 -8.56055,0.59546 -17.95532,3.68605 -25.68164,0 -7.37308,-3.51752 -15.41992,-19.048443 -15.41992,-19.048443 z"
         style="fill:#020035;fill-opacity:1;stroke:#d45500;stroke-width:0.694313;stroke-dasharray:none;stroke-opacity:1"
         id="path5" /><path
         style="fill:#020035;fill-opacity:1;stroke:#d45500;stroke-width:0.694313;stroke-dasharray:none;stroke-opacity:1"
         d="m 203.05839,111.87984 c 6.39127,-5.41516 22.25316,-16.473672 35.13784,-7.01053 3.86032,2.83521 7.46557,7.51129 10.48827,14.73118 7.96073,17.732 -1.07042,26.69918 15.8155,40.46823 -53.95496,-1.02723 -14.97534,-37.56056 -38.89355,-46.35644 -4.32192,-1.58938 -10.5334,-0.60332 -19.53025,3.1952"
         id="path7" /><path
         d="m 130.58594,78.177734 c -9.72945,0.03008 -18.53514,7.944381 -22.49024,17.105466 l -15.377035,5.82118 c -0.736751,0.27891 -1.316687,1.14472 -1.22331,1.92673 1.058275,8.8629 8.552575,8.49267 17.383555,12.65248 1.74615,1.65698 4.06159,4.76633 6.775,8.18348 3.33666,4.20203 9.44014,5.20296 14.93203,5.21301 13.63957,1.7e-4 24.69684,-11.39463 24.69726,-25.45117 -4.2e-4,-14.056549 -11.05769,-25.451349 -24.69726,-25.451176 z"
         style="display:inline;opacity:1;fill:#020035;fill-opacity:1;stroke:#d45500;stroke-width:0.694313;stroke-dasharray:none;stroke-opacity:1"
         id="path6" /><path
         style="fill:#ffdd55;fill-opacity:1;stroke:#d45500;stroke-width:0.694313;stroke-dasharray:none;stroke-opacity:1"
         d="m 94.700087,100.5382 c -3.575996,0.65271 -3.215703,2.83623 -3.181651,3.31049 -0.01966,0.48917 0.508755,1.74149 0.763127,2.1426 0.827214,1.3045 3.361633,-0.27315 3.467673,-2.21192 0.0859,-1.57059 -0.940054,-3.26108 -1.049149,-3.24117 z"
         id="path87" /><path
         style="fill:none;fill-opacity:1;stroke:#d45500;stroke-width:0.433946;stroke-dasharray:none;stroke-opacity:1"
         d="m 95.939064,110.48923 c 1.234692,0.0915 2.362296,-0.10408 3.345496,-0.43253"
         id="path117" /><rect
         style="fill:#ffdd55;fill-opacity:1;stroke:#d45500;stroke-width:0.182257;stroke-dasharray:none;stroke-opacity:1"
         id="rect29"
         width="1.9474885"
         height="15.064616"
         x="-143.20786"
         y="-1.9945083"
         transform="matrix(-0.83660418,-0.54780785,-0.54780785,0.83660418,0,0)" /></g><path
       d="m 216.15711,83.575509 c 3.32327,5.3444 5.16862,12.34481 5.17076,19.612321 -0.0179,8.91544 -2.80104,18.61344 -7.55144,24.08287 5.56734,7.28258 13.90669,10.23463 22.72562,10.26947 16.26249,-2.4e-4 29.44557,-14.04005 29.44531,-31.35837 -1.3e-4,-3.82284 -0.66923,-9.397451 -3.65926,-15.149641 1.38793,0.008 3.85051,0.62246 3.35316,-1.00993 -2.27438,-1.22077 1.68864,-4.60698 -5.52103,-6.28876 1.91549,-3.51406 -1.71714,-1.09052 -3.69371,-0.63935 -5.24335,-5.13435 -12.23995,-8.26929 -19.92447,-8.27002 -7.58729,0.0191 -14.8755,3.15184 -20.34494,8.75141 z"
       style="display:none;fill:#ffdd55;fill-opacity:1;stroke:#d45500;stroke-width:0.597206;stroke-dasharray:none;stroke-opacity:1"
       id="path8" /><g
       id="g10"
       transform="matrix(0.86016011,0,0,0.86016011,-3.1506712,55.80575)"
       style="stroke:#d45500;stroke-width:0.694313;stroke-dasharray:none;stroke-opacity:1"><path
         d="m 181.39912,149.76019 c -0.14137,5.34102 5.04132,10.76402 7.46431,13.2435 5.46396,5.59136 8.88181,7.45442 4.13331,8.17993 -5.04034,0.7701 -6.91016,2.74669 -6.91016,5.80468 -1e-5,5.6041 6.76099,5.00319 13.89301,5.05238 3.28055,0.0226 6.47856,-1.29794 6.30028,-5.05224 -0.48661,-10.24729 -1.25616,-18.3782 -4.26776,-23.98728 l -5.36175,-9.98624 c -4.36796,-8.1353 -14.99084,-3.09252 -15.25124,6.74527 z"
         style="display:none;opacity:1;fill:#020035;fill-opacity:1;stroke:#d45500;stroke-width:0.694313;stroke-dasharray:none;stroke-opacity:1"
         id="path9" /><path
         d="m 133.60605,153.0394 c 1.37568,14.02942 7.08354,16.04953 -0.20938,18.80178 -2.31928,0.87526 -3.81074,2.90219 -3.81074,5.10023 0,5.60504 4.35558,5.44658 13.1582,5.87109 8.3484,-0.98047 9.83323,-22.15447 9.77966,-30.46688 -0.0618,-9.58759 -11.49434,-13.47569 -16.97518,-7.5185 -1.90458,2.07011 -2.06348,6.97914 -1.94256,8.21228 z"
         style="fill:#020035;fill-opacity:1;fill-rule:evenodd;stroke:#d45500;stroke-width:0.694313;stroke-dasharray:none;stroke-opacity:1"
         id="path10" /></g><path
       style="display:inline;fill:#00ffff;fill-opacity:1;stroke:#d45500;stroke-width:0.329672;stroke-dasharray:none;stroke-opacity:1"
       d="m 98.468093,141.15371 c 3.760487,5.06551 7.244807,-0.52431 7.201807,-0.86479 0.31056,-0.29331 -2.54732,-5.14807 -4.47359,-4.03694 -1.448997,0.83613 -2.728217,4.90173 -2.728217,4.90173 z"
       id="path118" /><g
       id="g107"
       transform="matrix(-1.4930535,0,0,1.4930535,456.78782,-37.396967)"
       style="display:inline;fill:#513300;fill-opacity:1;stroke:#d45500;stroke-opacity:1"><path
         style="fill:#020035;fill-opacity:1;stroke:#d45500;stroke-width:0.45;stroke-dasharray:none;stroke-opacity:1"
         d="m 250.40419,119.14749 c 3.33726,-5.68302 5.84085,-9.83102 7.71713,-12.85854 2.87393,-4.63732 6.85179,-3.94669 8.46859,1.27275 l 5.20426,16.8007"
         id="path106"
         transform="matrix(0.4696055,-0.01879103,0.01879103,0.4696055,105.55349,58.534319)" /><path
         style="fill:#020035;fill-opacity:1;stroke:#d45500;stroke-width:0.4;stroke-dasharray:none;stroke-opacity:1"
         d="m 254.897,119.24074 c 2.82961,-4.81853 4.74137,-7.94707 6.03031,-9.97824 1.35688,-2.13823 3.23564,-1.79362 3.98632,0.62978 l 3.95065,12.7537"
         id="path107"
         transform="matrix(0.4696055,-0.01879103,0.01879103,0.4696055,105.84184,58.609408)" /></g><circle
       style="display:inline;opacity:1;fill:none;stroke:#d45500;stroke-width:0.371748;stroke-opacity:1;paint-order:stroke fill markers"
       id="path11"
       cx="-159.95265"
       cy="183.1265"
       r="7.5751405"
       transform="scale(-1,1)" /><path
       d="m 160.1919,175.56745 c 5.41519,0.0609 8.64114,7.36855 10.41997,11.84389 2.11882,5.04965 3.25331,11.8185 3.67188,20.63281 0.15334,3.2293 -2.59813,4.36514 -5.41993,4.3457 -6.13468,-0.0423 -11.95118,0.47472 -11.95117,-4.3457 0,-2.63036 1.60981,-4.32978 5.94531,-4.99219 4.08447,-0.62405 1.14324,-2.22764 -3.55664,-7.03711 -1.8631,-1.90653 -5.62133,-5.69195 -6.64648,-10.17968 -0.12164,-0.53248 -0.20729,-1.07472 -0.24414,-1.625 -0.28279,-4.22306 2.42304,-7.25609 5.45508,-8.29298 0.7241,-0.24762 1.51521,-0.35872 2.32617,-0.3496 z"
       style="display:inline;fill:#020035;fill-opacity:1;stroke:#000000;stroke-width:0.397529;paint-order:stroke fill markers"
       id="path38" /></g><g
     id="layer4"
     transform="translate(-50.523761,-17.788738)"><g
       id="g111"
       transform="matrix(3.2235641,0,0,3.2235641,-64.069768,-2.1598675)"><path
         style="fill:#ffdd55;fill-opacity:1;stroke:none;stroke-width:0.1;stroke-dasharray:none"
         d="m 75.977501,38.701354 c -2.65165,1.37002 -7.380427,3.668117 -7.513009,2.43068 -0.132583,-1.237437 1.237437,-2.784233 -1.414214,-1.325825 -2.65165,1.458407 -2.370434,2.782236 -3.571702,0.860788 -1.201269,-1.921449 -0.936104,-4.440516 -2.571288,-3.954381 -1.635184,0.486136 -3.358757,-0.883883 -1.90035,-1.944543 1.458408,-1.06066 3.933282,-7.645592 4.419418,-8.794641 0.486136,-1.149048 -0.574524,-1.502602 1.458408,-1.723572 2.032932,-0.220971 2.65165,-0.265165 3.535534,-0.883884 0.883883,-0.618718 -0.662913,-1.281631 1.988737,-0.662912 2.651651,0.618718 2.281048,-1.886075 2.651651,0.618718 0.370603,2.504793 -1.90035,3.358757 -0.707107,4.640388 1.193243,1.281631 1.354584,6.08009 1.296011,8.409635 -0.05857,2.329549 2.327911,2.329549 2.327911,2.329549 z"
         id="path105"
         clip-path="url(#clipPath41)" /><path
         style="fill:#020035;fill-opacity:1;stroke:none;stroke-width:0.1;stroke-dasharray:none"
         d="m 57.046003,38.548894 c 2.65165,-1.37002 7.380427,-3.668117 7.513009,-2.43068 0.132583,1.237437 -1.237437,2.784233 1.414214,1.325825 2.65165,-1.458407 2.370434,-2.782236 3.571702,-0.860788 1.201269,1.921449 0.936104,4.440516 2.571288,3.954381 1.635184,-0.486136 3.358757,0.883883 1.90035,1.944543 -1.458408,1.06066 2.80633,0 2.320194,1.149049 -0.486136,1.149048 5.45932,4.156166 3.426388,4.377136 -2.032932,0.220971 -2.65165,0.265165 -3.535534,0.883884 -0.883883,0.618718 0.662913,1.281631 -1.988737,0.662912 -2.651651,-0.618718 -0.526306,-1.995033 -2.651651,-0.618718 -3.063961,1.984137 -11.447495,0.42507 -9.679864,-5.79135 0.478942,-1.684346 -2.592021,0.0629 -2.533448,-2.266645 0.05857,-2.329549 -2.327911,-2.329549 -2.327911,-2.329549 z"
         id="path108"
         clip-path="url(#clipPath32)" /><path
         d="m 71.799741,27.053748 a 10.34375,10.34375 0 0 0 -10.34375,10.34375 10.34375,10.34375 0 0 0 10.34375,10.34375 10.34375,10.34375 0 0 0 5.53124,-1.638672 8.7804879,8.7804879 0 0 1 -7.82617,-8.705078 8.7804879,8.7804879 0 0 1 7.87305,-8.708984 10.34375,10.34375 0 0 0 -5.57812,-1.634766 z"
         style="display:inline;opacity:1;fill:none;stroke:#000000;stroke-width:0.25;stroke-dasharray:none"
         id="path111"
         clip-path="url(#clipPath40)" /><path
         style="fill:#d45500;fill-opacity:1;stroke:#000058;stroke-width:0"
         d="m 72.964581,25.853592 c -0.126706,1.252667 -2.187612,1.701475 -1.767767,2.607456 0.419845,0.90598 1.016466,-0.486136 0.839689,0.795495 -0.176776,1.281631 0.433037,0.749798 0.912577,1.192491 0.47954,0.442693 0.590025,-0.44119 1.937947,-0.220219 1.347923,0.220971 1.044701,0.568029 1.767767,-0.486136 0.723067,-1.054165 1.21534,-2.231806 0.53033,-2.253903 -0.685009,-0.0221 -1.392116,-0.04419 -1.502601,-0.640815 -0.110486,-0.596622 -0.397748,-0.508233 -1.060661,-0.441942 -0.662912,0.06629 -0.707106,-0.441942 -0.883883,-0.883884 -0.176777,-0.441941 -0.773398,0.331457 -0.773398,0.331457 z"
         id="path104"
         clip-path="url(#clipPath39)" /><path
         style="fill:#00ffff;fill-opacity:1;stroke-width:0.117247;paint-order:stroke fill markers"
         d="m 76.691242,44.077048 c 0,0 -0.0026,-0.0045 -1.376582,-0.09694 -1.491651,-0.100366 -3.247551,1.133563 -2.714387,1.880682 0.0693,0.09711 -3.325195,-3.745234 -3.711627,-1.081336 -0.155484,1.071838 -3.306398,0.8846 -0.327174,4.241658 5.807024,2.256529 6.915064,0.846537 8.301367,-0.412063 1.280053,-1.162138 0.232345,-3.133638 0.329033,-3.221785 0.72652,-0.662345 -0.50063,-1.310216 -0.50063,-1.310216 z"
         id="path30"
         clip-path="url(#clipPath30)" /><path
         d="m 71.799741,27.053748 a 10.34375,10.34375 0 0 0 -10.34375,10.34375 10.34375,10.34375 0 0 0 10.34375,10.34375 10.34375,10.34375 0 0 0 5.53124,-1.638672 8.7804879,8.7804879 0 0 1 -7.82617,-8.705078 8.7804879,8.7804879 0 0 1 7.87305,-8.708984 10.34375,10.34375 0 0 0 -5.57812,-1.634766 z"
         style="display:inline;opacity:1;fill:none;stroke:#000000;stroke-width:0.25;stroke-dasharray:none"
         id="path110"
         clip-path="url(#clipPath37)" /></g></g><g
     id="layer6"
     style="display:inline;opacity:0.5"
     transform="translate(-50.523761,-17.788738)"><text
       xml:space="preserve"
       id="text112"
       style="font-size:96px;text-align:start;writing-mode:lr-tb;direction:ltr;white-space:pre;shape-inside:url(#rect113);display:inline;fill:#ffdd55;fill-opacity:1;stroke:none;stroke-width:0.1;stroke-dasharray:none;stroke-opacity:1" /><text
       xml:space="preserve"
       style="font-size:14.7091px;text-align:start;writing-mode:lr-tb;direction:ltr;text-anchor:start;display:inline;fill:#000000;fill-opacity:1;stroke:none;stroke-width:0.015322;stroke-dasharray:none;stroke-opacity:1"
       x="-10.749276"
       y="198.40472"
       id="text117"
       transform="rotate(-45)"><tspan
         id="tspan117"
         x="-10.749276"
         y="198.40472"
         style="fill:#000000;fill-opacity:1;stroke:none;stroke-width:0.015322">star_t_pup</tspan></text><text
       xml:space="preserve"
       style="font-size:32.3459px;text-align:start;writing-mode:lr-tb;direction:ltr;text-anchor:start;fill:#d45500;fill-opacity:1;stroke:none;stroke-width:0.0336937;stroke-dasharray:none;stroke-opacity:1"
       x="-30.780384"
       y="302.86975"
       id="text114"
       transform="rotate(-45)"><tspan
         id="tspan114"
         x="-30.780384"
         y="302.86975"
         style="fill:#d45500;fill-opacity:1;stroke-width:0.0336937">star_t_pup</tspan></text><text
       xml:space="preserve"
       style="font-size:32.3459px;text-align:start;writing-mode:lr-tb;direction:ltr;text-anchor:start;fill:#d45500;fill-opacity:1;stroke:none;stroke-width:0.0336937;stroke-dasharray:none;stroke-opacity:1"
       x="69.67775"
       y="399.51532"
       id="text115"
       transform="rotate(-45)"><tspan
         id="tspan115"
         x="69.67775"
         y="399.51532"
         style="fill:#d45500;fill-opacity:1;stroke-width:0.0336937">star_t_pup</tspan></text><text
       xml:space="preserve"
       style="font-size:27.1243px;text-align:start;writing-mode:lr-tb;direction:ltr;text-anchor:start;fill:#d45500;fill-opacity:1;stroke:none;stroke-width:0.0282545;stroke-dasharray:none;stroke-opacity:1"
       x="191.28487"
       y="514.10107"
       id="text116"
       transform="rotate(-45)"><tspan
         id="tspan116"
         x="191.28487"
         y="514.10107"
         style="fill:#d45500;fill-opacity:1;stroke-width:0.0282545">star_t_pup</tspan></text></g></svg>
