<?xml version="1.0" encoding="UTF-8" standalone="no"?>
<!-- Created with Inkscape (http://www.inkscape.org/) -->

<svg
   width="71.4375mm"
   height="71.4375mm"
   viewBox="0 0 71.4375 71.4375"
   version="1.1"
   id="svg1"
   inkscape:version="1.4 (86a8ad7, 2024-10-11)"
   xml:space="preserve"
   sodipodi:docname="SnowSymbol.svg"
   xmlns:inkscape="http://www.inkscape.org/namespaces/inkscape"
   xmlns:sodipodi="http://sodipodi.sourceforge.net/DTD/sodipodi-0.dtd"
   xmlns="http://www.w3.org/2000/svg"
   xmlns:svg="http://www.w3.org/2000/svg"><sodipodi:namedview
     id="namedview1"
     pagecolor="#553a2d"
     bordercolor="#000000"
     borderopacity="0.25"
     inkscape:showpageshadow="2"
     inkscape:pageopacity="0.0"
     inkscape:pagecheckerboard="0"
     inkscape:deskcolor="#000035"
     inkscape:document-units="mm"
     inkscape:zoom="2.209788"
     inkscape:cx="133.04444"
     inkscape:cy="149.10933"
     inkscape:window-width="1920"
     inkscape:window-height="991"
     inkscape:window-x="-9"
     inkscape:window-y="-9"
     inkscape:window-maximized="1"
     inkscape:current-layer="layer1-8"><inkscape:page
       x="6.4103643e-14"
       y="5.6017304e-14"
       width="71.4375"
       height="71.4375"
       id="page2"
       margin="0"
       bleed="0" /></sodipodi:namedview><defs
     id="defs1" /><g
     inkscape:label="Layer 1"
     inkscape:groupmode="layer"
     id="layer1"
     transform="translate(-348.05936,-91.082811)"><g
       inkscape:label="Layer 1"
       id="layer1-8"
       transform="translate(-132.7991,48.280427)"><g
         id="g12"
         transform="matrix(0.714375,0,0,0.714375,137.3452,12.225431)"><circle
           style="fill:#000080;fill-opacity:1;stroke:none;stroke-width:1.06466;stroke-linejoin:round;stroke-dasharray:none;paint-order:stroke fill markers"
           id="path12"
           cx="530.85846"
           cy="92.802383"
           r="50" /><path
           id="path5"
           style="fill:#00ffff;stroke:none;stroke-width:1.48706;stroke-linejoin:round;paint-order:stroke fill markers"
           inkscape:transform-center-x="-3.734286"
           inkscape:transform-center-y="-4.2810524"
           d="m 532.00089,57.726054 -9.30607,25.26441 -3.02513,-6.795766 -25.18242,6.383355 21.15313,16.657603 -7.39773,0.778724 -1.71111,25.92015 22.37753,-14.96959 -1.54456,7.27475 24.12448,9.63902 -7.32342,-25.90731 6.43971,3.71676 16.62434,-19.964578 -7.33879,-0.284524 -19.565,-0.76078 5.52522,-4.974465 z m -0.47883,18.38413 a 4.4050252,4.4050252 0 0 1 4.76449,3.87047 l 0.0297,0.517398 a 4.4050252,4.4050252 0 0 1 -4.2752,4.403285 4.4050252,4.4050252 0 0 1 -4.52879,-4.142008 4.4050252,4.4050252 0 0 1 4.00876,-4.649145 z m -3.66556,14.90297 a 2.461104,2.461104 0 0 1 2.3387,1.698322 l 0.27659,0.835034 h 0.87093 a 2.461104,2.461104 0 0 1 1.44725,4.451961 l -0.70442,0.512292 0.26916,0.832506 a 2.461104,2.461104 0 0 1 -3.78596,2.756221 l -0.7121,-0.51745 -0.70695,0.51229 a 2.461104,2.461104 0 0 1 -3.78595,-2.751061 l 0.26915,-0.832506 -0.70442,-0.512292 a 2.461104,2.461104 0 0 1 1.44215,-4.451961 h 0.87861 l 0.26916,-0.835034 a 2.461104,2.461104 0 0 1 2.33865,-1.698322 z m -11.85732,14.001316 a 4.4050252,4.4050252 0 0 1 3.79106,2.09021 4.4050252,4.4050252 0 0 1 -1.32428,5.99399 4.4050252,4.4050252 0 0 1 -6.02988,-1.14756 4.4050252,4.4050252 0 0 1 0.97086,-6.06056 l 0.43273,-0.28453 a 4.4050252,4.4050252 0 0 1 2.15936,-0.59175 z m 23.45852,1.33969 a 4.4050252,4.4050252 0 0 1 2.1901,0.46099 4.4050252,4.4050252 0 0 1 2.02106,5.79418 4.4050252,4.4050252 0 0 1 -5.73272,2.19009 l -0.46346,-0.23049 a 4.4050252,4.4050252 0 0 1 -1.6778,-5.90437 4.4050252,4.4050252 0 0 1 3.66297,-2.3105 z" /></g><text
         xml:space="preserve"
         style="font-size:11.5092px;text-align:start;writing-mode:lr-tb;direction:ltr;text-anchor:start;fill:#ff1c00;fill-opacity:0.5;stroke:#ff0000;stroke-width:0.00959095"
         x="371.07883"
         y="-332.83838"
         id="text3"
         transform="rotate(48.373365)"><tspan
           sodipodi:role="line"
           id="tspan3"
           style="fill:#ff1c00;fill-opacity:0.5;stroke-width:0.00959095"
           x="371.07883"
           y="-332.83838">star_t_pup</tspan></text></g></g></svg>
